<?xml version="1.0" encoding="UTF-8" standalone="no"?>
<svg
   version="1.1"
   width="1389"
   height="600"
   id="svg168"
   sodipodi:docname="favicon.svg"
   inkscape:version="1.4.2 (f4327f4, 2025-05-13)"
   inkscape:export-filename="C:\Users\ryan_\Downloads\favicon.svg"
   inkscape:export-xdpi="35.474693"
   inkscape:export-ydpi="35.474693"
   xmlns:inkscape="http://www.inkscape.org/namespaces/inkscape"
   xmlns:sodipodi="http://sodipodi.sourceforge.net/DTD/sodipodi-0.dtd"
   xmlns="http://www.w3.org/2000/svg"
   xmlns:svg="http://www.w3.org/2000/svg">
  <defs
     id="defs168">
    <linearGradient
       id="swatch173"
       inkscape:swatch="solid">
      <stop
         style="stop-color:#6e2854;stop-opacity:1;"
         offset="0"
         id="stop173" />
    </linearGradient>
    <linearGradient
       id="swatch172">
      <stop
         style="stop-color:#6e2854;stop-opacity:1;"
         offset="0"
         id="stop172" />
    </linearGradient>
    <inkscape:path-effect
       effect="fillet_chamfer"
       id="path-effect171"
       is_visible="true"
       lpeversion="1"
       nodesatellites_param="F,0,0,1,0,0,0,1 @ F,0,0,1,0,0,0,1 @ F,0,0,1,0,0,0,1 @ F,0,0,1,0,0,0,1 @ F,0,0,1,0,0,0,1 @ F,0,0,1,0,0,0,1"
       radius="0"
       unit="px"
       method="auto"
       mode="F"
       chamfer_steps="1"
       flexible="false"
       use_knot_distance="true"
       apply_no_radius="true"
       apply_with_radius="true"
       only_selected="false"
       hide_knots="false" />
  </defs>
  <sodipodi:namedview
     id="namedview168"
     pagecolor="#ffffff"
     bordercolor="#111111"
     borderopacity="1"
     inkscape:showpageshadow="0"
     inkscape:pageopacity="0"
     inkscape:pagecheckerboard="1"
     inkscape:deskcolor="#d1d1d1"
     showguides="true"
     inkscape:zoom="0.70710678"
     inkscape:cx="584.77731"
     inkscape:cy="347.89654"
     inkscape:window-width="1440"
     inkscape:window-height="830"
     inkscape:window-x="-6"
     inkscape:window-y="-6"
     inkscape:window-maximized="1"
     inkscape:current-layer="svg168">
    <sodipodi:guide
       position="672,170"
       orientation="0,-1"
       id="guide177"
       inkscape:locked="false" />
  </sodipodi:namedview>
  <g
     id="g175"
     inkscape:label="A1"
     style="display:inline"
     transform="translate(-50.006549,17.290927)">
    <path
       d="m 73.804687,132.29297 c 4.116569,7.31716 0.02277,6.4845 2,17.1875 l -0.01025,2.60205 c 2.702886,14.48298 4.742221,29.41627 11.885253,42.58545 l 7.094538,19.34923 C 109.49505,248.40861 95.33953,251.71988 83.74219,252.85547 52.468651,267.7095 57.45228,180.401 42.433194,140.01599 37.869498,127.74461 62.361781,105.73463 73.804687,132.29297 Z"
       fill="#fd4c04"
       id="path1"
       transform="translate(821.69531,154.26953)"
       sodipodi:nodetypes="ccccccsc"
       style="display:inline" />
    <path
       d="M 0,0 C 0.33,0 0.66,0 1,0 1.1843359,0.78117187 1.3686719,1.5623437 1.5585937,2.3671875 6.0388805,20.24851 12.305157,37.621367 19.6875,54.5 c 0.439006,1.007241 0.878013,2.014482 1.330322,3.052246 C 24.484995,65.292639 28.583591,72.504689 33.375,79.5 35,82 35,82 35,84 c -24.09,0 -48.18,0 -73,0 -0.33,-0.66 -0.66,-1.32 -1,-2 0.389297,-0.501445 0.778594,-1.002891 1.179688,-1.519531 C -24.240579,62.11341 -16.469034,40.252729 -7.925354,19.267456 -6.3070929,15.302124 -4.6749177,11.342527 -3.0429688,7.3828125 -2.737325,6.6410275 -2.4316812,5.8992426 -2.1167755,5.1349792 -1.4113644,3.423245 -0.70571141,1.7116105 0,0 Z"
       fill="#9030b1"
       transform="translate(816,312)"
       id="path21" />
    <path
       d="m 0,0 c 2.8018646,-0.36749268 2.8018646,-0.36749268 6.4216309,-0.35644531 l 1.996109,-0.006195 c 2.1826481,-0.003014 4.3645451,0.0154882 6.5471041,0.0345154 1.514529,0.003057 3.029062,0.004934 4.543594,0.005676 3.176903,0.004607 6.353552,0.0190465 9.53038,0.0411987 4.073409,0.0282586 8.146618,0.0392087 12.220115,0.0436821 3.128666,0.004157 6.257291,0.0139768 9.385936,0.0258751 1.501913,0.0057 3.00383,0.0104598 4.505749,0.014267 2.099521,0.006873 4.198885,0.0205108 6.298357,0.036293 l 3.622177,0.0206909 C 68,0 68,0 71,1 L 72,5 -2.8119611,5.0441942 -1.4375,2.9375 Z"
       fill="#881ab1"
       id="path44"
       sodipodi:nodetypes="cccccscscccccccc"
       transform="translate(779,391)" />
    <path
       d="M 0,0 C 0.33,0 0.66,0 1,0 1.1843359,0.78117187 1.3686719,1.5623437 1.5585937,2.3671875 5.5418685,18.26488 11.250761,33.668695 17,49 4.79,49 -7.42,49 -20,49 -13.478456,32.602976 -6.8376976,16.267564 0,0 Z"
       fill="#6e2854"
       transform="translate(816,312)"
       id="path32" />
    <path
       d="m 778.375,358.92374 c 2.80186,-0.16361 2.80186,-0.16361 6.42163,-0.1587 l 1.99611,-0.003 c 2.18265,-0.001 4.36455,0.007 6.5471,0.0154 1.51453,10e-4 3.02907,0.002 4.5436,0.003 3.1769,0.002 6.35355,0.008 9.53038,0.0183 4.07341,0.0126 8.14662,0.0174 12.22011,0.0195 3.12867,0.002 6.25729,0.006 9.38594,0.0115 1.50191,0.003 3.00383,0.005 4.50575,0.006 2.09952,0.003 4.19888,0.009 6.29836,0.0162 l 3.62217,0.009 c 2.92885,0.0625 2.92885,0.0625 5.92885,0.50775 l 1,1.78088 -74.81196,0.0197 1.37446,-0.93794 z"
       fill="#881ab1"
       id="path174"
       sodipodi:nodetypes="cccccscscccccccc"
       style="fill:#60234a;fill-opacity:1;stroke-width:0.667249" />
    <path
       d="M 0,0 1.0495558,-0.9178143 1.0068077,2.0024508 C 4.1964126,24.055609 9.5059213,44.971739 16.4375,66.125 l 0.675568,2.088623 c 2.82508,8.682175 6.141053,16.738367 10.453582,24.793701 2.023924,4.225729 2.574305,7.974796 2.55835,12.617676 l 0.0078,2.28906 c -0.245058,3.84887 -1.529925,5.8932 -4.195312,8.52344 C 16.597656,124.32633 1.6517316,124.87335 -10,125 l -3.40625,0.0391 C -25.727108,124.6577 -36.435842,118.72965 -45,110 -63.741985,87.086508 -71.961428,55.672068 -81,28 l -1.142334,2.696045 c -0.534582,1.261477 -1.069169,2.522951 -1.60376,3.784424 l -0.86763,2.047668 c -1.587139,3.744909 -3.17608,7.489041 -4.768112,11.231873 -4.134954,9.722528 -4.134954,9.722528 -8.200195,19.474365 C -106.04544,87.639692 -115.99028,109.4329 -135,122 c -3.61694,1.20565 -6.92319,1.15016 -10.6875,1.125 l -2.27344,-0.0147 C -150.30766,123.08578 -152.6536,123.04606 -155,123 l -2.21729,-0.0381 C -171.20922,122.64992 -179.62486,119.5514 -190,110 c -2.45359,-3.68038 -3.15385,-6.65035 -3,-11 1.56656,-7.498604 4.72929,-13.75048 9.02344,-20.039063 L -182,76 l 1.31299,-1.823242 c 5.37929,-8.060888 7.99334,-17.157207 10.90137,-26.313965 0.90125,-2.833263 1.82419,-5.658725 2.75048,-8.483887 3.09605,-9.555202 5.86237,-19.056625 7.78739,-28.922607 1.05142,-5.2599503 1.40497,-12.3310182 2.85002,-9.1356776 2.79879,4.1981841 6.59162,5.8980437 5.66995,10.7067256 -5.41064,24.883739 -17.61426,52.711275 -31.62694,74.179196 -3.25568,5.01676 -5.99255,9.407445 -6.14135,15.508297 1.28384,5.91378 5.96945,9.29149 10.79687,12.4336 6.03663,3.31092 12.95634,3.40055 19.69922,3.85156 l 2.54492,0.17383 c 13.12385,1.11988 13.12385,1.11988 24.58789,-4.22852 l 2.61849,-2.21048 1.49089,-1.86764 C -120.43022,103.41177 -116.15277,95.943703 -112,88 l 0.96338,-1.802734 c 5.53495,-10.390314 10.04352,-21.167028 14.50537,-32.052735 2.774415,-6.767988 5.662424,-13.485001 8.575928,-20.194092 2.13285,-4.936793 3.267921,-10.209003 5.115632,-15.259798 1.800913,0.04419 4.83969,0.889514 4.83969,0.889514 l 0.777344,3.915939 c 4.395931,19.016664 11.124475,37.0653 18.910156,54.941406 l 1.330566,3.065186 C -50.114517,96.912656 -41.157321,112.37516 -24.75,119 c 9.977413,2.70514 20.7360969,1.04818 30.8125,-0.3125 l 2.7041016,-0.35596 C 13.675432,117.60441 17.718678,116.67331 22,114 c 3.40367,-4.76514 3.641846,-9.34532 3,-15 -0.969977,-2.973467 -2.377522,-5.663908 -3.8125,-8.4375 -4.515498,-9.351504 -7.835699,-18.944673 -11,-28.8125 L 9.4903259,59.597687 C -3.3979081,10.481806 -3.4862965,10.835359 -2.7924299,-0.57666621 Z"
       fill="#c03c06"
       transform="translate(897,287)"
       id="path25"
       sodipodi:nodetypes="cccccccccccccssccccccccccccccccccccccccccccccccccccccccccccc" />
    <path
       d="M 0,0 C 1.625,1.5 4.8125,-1.625 6.1875,-0.12499999 L 5.6875,1.1875 c 3.0511486,6.102297 1.070097,16.709412 -0.5,23 L 4.6867676,26.20166 C 3.5048963,30.681091 1.8705138,34.764291 0,39 l -0.875,3.1875 c -0.92837,3.146143 -1.9982527,5.886907 -3.3125,8.875 -2.534463,5.951462 -4.5435719,12.023755 -6.5,18.1875 l -0.901123,2.832275 c -1.652187,5.271531 -3.307731,6.301092 -4.588154,11.675084 L -18,88 l -0.445312,2.019531 c -2.077187,8.535564 -4.626136,18.115309 -10.670805,24.687569 -1.986245,0.55535 -2.978415,0.18359 -5.067149,-0.47611 -1.917849,-0.60573 -3.064879,-1.14054 -4.949317,-2.29165 C -43.83471,108.54336 -47.777993,105.83301 -51,101 -51.633676,93.205074 -48.560945,87.717045 -44.375,81.4375 -38.783212,72.542893 -34.495799,63.891521 -31,54 l 1.179688,-3.323242 C -24.309013,34.990429 -19.416952,19.293465 -16,3 L -13.9375,-1.1875 -10,1 c 3.7507181,-1.82177738 6.0063733,-2.3662407 10,-1 z"
       fill="#fd4b03"
       transform="translate(759,290)"
       id="path18"
       sodipodi:nodetypes="ccccccccccccccsccccccccc" />
    <path
       d="m 0,0 2.125,0.65625 c 9.418137,2.7640184 15.356338,5.3874623 24.5,1.46875 -1.01367,6.3599784 -2.062629,10.474647 -3.5,16.75 l -0.777344,3.472656 C 21.105478,27.772041 19.751556,32.929029 17.678711,38.09082 16.372034,41.766437 15.777251,45.611682 15.0625,49.4375 13.744441,56.084658 12.17911,61.97572 9,68 L 7.5625,71.4375 C 6.3336824,74.239204 5.0276582,76.911446 3.625,79.625 1.0679029,84.646769 -0.88624494,89.817394 -2.7890625,95.117187 -3.9327288,97.839851 -5.2220341,99.676045 -7,102 c -0.7823323,1.72689 -1.5116231,3.47874 -2.1875,5.25 l -1.042969,2.70313 -0.857919,3.63786 L -13,114 c -8.40216,0.11039 -16.647368,-0.0454 -25,-1 0.749421,-1.35449 1.499574,-2.70857 2.25,-4.0625 l 1.386719,-2.51172 c 1.100189,-1.95764 2.254806,-3.88464 3.425781,-5.80078 C -28.282701,96.041408 -26.698693,90.996686 -25,86 l 3.149049,-8.927223 C -18.512448,66.648115 -19.746521,70.305483 -18.75,67.25 l 0.950195,-2.950195 C -15.8176,58.235756 -13.625486,52.374062 -11.054688,46.535156 -9.6530064,43.16593 -8.6678781,39.727382 -7.6796875,36.21875 -7,34 -7,34 -5.5,30.6875 -1.8647087,21.750742 -0.6474325,13.091548 -0.9921875,3.484375 L -1,1 Z"
       fill="#fef9da"
       transform="translate(766,292)"
       id="path19"
       sodipodi:nodetypes="cccccccccccccccccccccccccccccc" />
    <path
       d="m 0,0 c 3.7930372,1.0019344 7.1528634,1.8102423 10.4375,4 1.325672,0.6817742 5.532537,-0.8980856 6.875,-0.25 l 9.28125,0.8125 C 25.410943,4.6071339 27.939491,6.4900586 18.251665,7.9875494 16.152078,8.312092 13.082532,8.1082612 9.6875,8.125 L 7.0117187,7.5390625 C 4.0625,6.6875 3.34375,6.34375 0.1875,4.5625 l -1.625,-2.75 C -2.3164062,-4.3398437 -0.87890625,2.8476563 -1,1 Z"
       fill="#dbcbc9"
       transform="translate(766,292)"
       id="path83"
       sodipodi:nodetypes="ccccscccccc" />
    <path
       d="M 0,0 0.76953125,3.4023438 C 1.116957,4.9141155 1.4646264,6.4258312 1.8125,7.9375 l 0.5019531,2.228516 C 3.3716259,14.7338 4.6679211,19.136092 6.1901856,23.569092 7.770972,28.31431 9.1149805,33.132269 10.5,37.9375 c 0.881694,3.047429 2.639393,13.594525 7.652344,27.265137 10.438256,23.066871 24.932612,40.208453 25.478663,42.155233 5.551241,9.90006 7.720461,11.29026 -3.785253,10.68184 C 33.107175,117.68337 22.76107,112.77613 17.539062,108.19922 13.693887,104.86871 10.808018,101.22275 8,97 L 6.5585937,94.910156 C -7.490654,73.12808 -17.981305,44.247002 -22.361816,18.741211 l -0.59399,-1.542337 c -1.480505,-0.707107 -1.431107,-0.447573 -2.668544,-0.337088 l -0.831949,1.08963 c -1.945986,7.747357 -4.888318,14.747866 -8.231201,21.986084 -3.664182,8.054069 -7.172556,16.103087 -10.3125,24.375 -5.486952,14.173533 -10.960987,24.839694 -20.067598,36.45483 -1.860895,2.3735 -4.974544,5.59126 -7.054346,7.99758 -1.618145,1.87219 -4.73776,3.37283 -6.084401,4.14793 -2.681292,1.09198 -8.147208,2.72234 -8.147208,2.72234 l 0.869178,-3.61174 c 1.506832,-5.43422 3.631437,-8.31144 6.440181,-14.686353 1.059524,-2.687261 2.035616,-4.743355 2.977788,-7.473806 1.834516,-3.797153 3.070672,-6.967665 4.84375,-10.394531 1.624187,-3.279509 2.944802,-6.64331 4.253906,-10.058594 0.90474,-2.250904 2.299059,-4.809722 3.296415,-7.595816 2.203754,-6.950639 2.537386,-8.201221 4.12869,-14.276282 3.316134,-10.23696 2.539258,-7.119594 4.561412,-15.201044 2.654186,-9.63175 3.360627,-13.312178 4.950983,-21.547951 C -49.148504,7.4133774 -48.662949,4.8704786 -47,1.8125 c 2.685585,0.383655 3.809531,0.9829222 5.6875,3 4.308842,4.0759317 9.29259,5.922594 15.125,6.6875 C -17.308673,10.950611 -9.7600359,7.6535382 -3.5234375,1.390625 -2,0 -2,0 0,0 Z"
       fill="#fd4d06"
       transform="translate(841,290)"
       id="path12"
       sodipodi:nodetypes="ccccccccscccccccccsscccccccccccccccc" />
    <path
       d="M 0,0 C 1.4375,1.4609375 1.4375,1.4609375 3,3.375 4.6186404,5.341648 6.196742,7.196742 8,9 L 6.0625,11.5625 C 3.8125,10.1875 4.125,9.875 2.5625,8.625 0.70981822,7.399237 -2.8906019,6.4646637 -7,7 c -2.5625,0.8738371 -4.269216,2.0546123 -8.531562,2.5270623 -0.555918,0.061619 -1.690596,-1.433355 -2.551807,-2.3319515 -0.946394,-0.9874777 1.205989,-0.544459 2.765307,-1.0245435 1.544688,-0.4755798 3.180327,-0.2677543 3.611687,-0.3447177 C -10.460549,5.6035686 -5.3238206,3.1473806 -4.625,2.375 -2,0 -2,0 0,0 Z"
       fill="#a232af"
       transform="translate(759,283)"
       id="path84"
       sodipodi:nodetypes="ccccccsssscc" />
    <path
       d="m 2,5.875 c 0,0 3.4251931,-24.415241 22.010684,-1.7324274 C 27.227163,8.0681501 29.317196,18.367797 30.5,22.6875 l 1.011719,3.341797 0.957031,3.232422 0.888672,2.967529 C 33.983396,34.928403 36,40 36,40 c 1.130777,3.644066 2.253547,7.290554 3.375,10.9375 l 0.960937,3.095703 C 42.161901,59.986605 46.625,73.25 46.625,73.25 l 2.0625,5.6875 c 1.057515,4.796587 1.880111,5.871369 3.996094,10.289062 0.946606,1.994335 1.834522,4.016916 2.683593,6.054688 1.841689,4.338462 4.080823,8.45052 6.320313,12.59375 0.818244,1.51724 1.634751,3.03542 2.449219,4.55469 l 1.084717,2.00732 C 66,116 65.226602,114.56369 66.220971,116.09402 63.670973,116.74083 61.208857,117.67008 58.8125,118 l -2.041016,0.28906 C 48.75993,119.38332 48.75993,119.38332 46,119 39.2195,113.36988 36.726711,106.99748 31.757812,99.332031 27.604581,90.151974 29.017542,92.918967 26.75,87.6875 22.847393,77.707464 17.34098,66.111346 14.3125,55.9375 L 13.273438,52.449219 C 11.313101,45.655638 9.4250448,38.840751 7.5500488,32.023193 6.0456473,26.584203 4.4447661,21.212953 2.6228027,15.87207 1.8957186,13.686543 1.3071862,11.499342 0.8125,9.25 L 0.33203125,7.140625 C -0.04133674,4.7334996 1.9447239,8.3071475 2,5.875 Z"
       fill="#fef9da"
       transform="translate(841,289)"
       id="path20"
       sodipodi:nodetypes="csccccccccccccccccccccccccccc"
       style="display:inline" />
    <path
       d="m 840.9375,290 c 1.12111,0.0901 1.83986,0.34006 2.82422,0.91016 7.72401,4.04381 12.73728,3.77238 21.26953,2.40234 l 1.32398,1.89607 0.29068,0.60232 c -6.69285,3.41763 -12.89257,4.54641 -20.17716,2.50161 -0.80438,-0.33 -1.60875,-0.66 -2.4375,-1 -2.87052,-1.08985 -0.94301,-0.34212 -2.71718,-0.98491 -0.45173,-2.53693 -0.44964,-3.75639 -0.37657,-6.32759 z"
       fill="#e0d6cd"
       id="path62"
       sodipodi:nodetypes="ccccccccc" />
    <path
       d="m 88.304687,111.73047 c 0.771393,6.17114 -0.578447,11.60608 -4.148437,16.875 -1.985751,1.80843 -3.737141,2.94369 -6.046875,4.08984 -2.133608,1.04564 1.241392,-0.89186 -3.742188,1.41016 -5.880186,1.96006 -18.0625,0.625 -18.0625,0.625 -32.81995,13.90527 -31.775603,0.42663 -37.15625,1.03125 -0.746637,0.0839 -1.609375,1.57812 -1.609375,1.57812 -7.25608,6.2521 -16.1856331,10.44344 -26.148437,9.91797 -6.044836,-1.48373 -13.537122,-6.54787 -16.085937,-8.52734 l -0.981838,-0.43252 -2.208803,-0.3352 c -5.258517,6.69191 -21.944252,8.21719 -26.684359,1.26777 l -3.9375,-3.125 -3.0625,-2.125 c -1.6875,-0.91667 -1.6875,-1.20833 -4.75,-2.3125 -4.73213,1.96717 -8.472294,3.22324 -14.0625,4.5 l -3.051777,-1.62316 c -4.434876,-1.92518 -6.556627,-2.91641 -9.818782,-6.38887 -1.610764,-3.88357 -2.441941,-6.99991 -2.441941,-11.17547 11.74712,-26.431037 174.680472,-14.56958 183.999999,-5.25005 z"
       fill="#8c15b2"
       id="path5"
       sodipodi:nodetypes="cccccacccccccccccccc"
       style="display:inline"
       transform="translate(821.69531,154.26953)" />
    <path
       d="m 24.304687,58.730469 2.359375,1.953125 c 4.249287,3.621875 8.024631,7.465821 11.636719,11.714843 13.391144,15.583846 26.902854,27.279445 45.738281,36.105473 2.265625,1.22656 2.265625,1.22656 3.265625,3.22656 l -2.1875,0.75 c -2.879487,1.12222 -2.879487,1.12222 -5.109375,3.19531 -7.540488,5.73164 -18.530895,6.79867 -27.703125,8.05469 l -1.757812,-2.16016 -2.367188,-2.90234 -2.320312,-2.84766 C 44.568654,114.23749 43.265318,112.687 41.894043,111.1731 37.433977,106.21346 34.089452,100.7591 30.679687,95.042969 29.567804,93.181717 28.450785,91.323522 27.328125,89.46875 l -1.471191,-2.467529 c -1.635273,-2.392211 -3.49669,-4.237931 -5.552247,-6.270752 -3,-5.357143 -4.104854,-5.180366 -4.104854,-7.823223 l -1.469669,-2.43068 -0.800476,-0.683597 C 12.646825,66.659673 13.530708,67.057421 10.569853,63.167207 8.3712869,59.557318 5.7592152,58.426776 2.3046875,57.730469 5.855749,84.632207 5.855749,84.632207 13.449219,110.50781 c 0.855469,2.22266 2.855468,6.22266 2.855468,6.22266 1.157751,3.47325 1.068667,6.36067 1,10 -6.211317,0.0741 -12.4223786,0.12857 -18.6340327,0.16479 -2.1136523,0.0151 -4.2272733,0.0356 -6.3408203,0.0615 -3.035805,0.0363 -6.071196,0.0534 -9.107178,0.0666 l -2.869583,0.0469 -2.668747,6.8e-4 -2.348465,0.0202 c -2.595316,-0.46096 -3.495409,-1.24256 -5.031173,-3.36076 1.276252,-5.79948 1.860202,-9.73328 3.875,-14.5 l 0.777343,-1.89453 c 1.279775,-3.10619 2.59857,-6.19509 3.925782,-9.281253 3.43614,-8.033395 5.982181,-16.106322 8.109374,-24.574218 l 0.649903,-2.580811 c 1.154371,-4.711918 2.070438,-9.353824 2.6625975,-14.169189 -5.0924735,1.273118 -6.9967985,2.752534 -9.9999995,7 -1.573468,2.702908 -3.009809,5.46791 -4.4375,8.25 -0.804519,1.533942 -1.609205,3.067798 -2.414063,4.601562 -1.163769,2.235271 -2.308475,4.473422 -3.421875,6.734375 -3.704578,7.269887 -9.120561,13.373224 -14.276855,19.644044 -1.967823,2.40261 -3.896023,4.83594 -5.824707,7.27002 l -1.890625,2.33984 c -1.13495,1.41358 -2.25055,2.84296 -3.34375,4.28907 l -1.515625,1.93359 -1.257813,1.66016 c -2.506214,1.97954 -4.436673,2.08246 -7.617187,2.27734 -3.032903,-0.3766 -5.967035,-1.04005 -8.9375,-1.75 l -2.341797,-0.51563 c -4.839117,-1.11262 -9.333524,-2.37776 -13.720703,-4.73437 -0.687256,-2.10059 -0.245314,-0.90735 -0.558058,-2.80676 l 2.995558,-3.1698 c 14.604972,-8.34124 14.542472,-6.52874 26.660156,-18.019535 2.010547,-2.394728 4.167352,-6.508946 6.277344,-8.816406 4.734046,-5.242997 9.187821,-10.693025 13.625,-16.1875 11.477171,-14.167134 11.477171,-14.167134 20,-16 18.0710735,-0.946397 27.5038587,-2.233795 45.999999,8.00009 z"
       fill="#fd4c05"
       transform="translate(821.69531,154.26953)"
       id="path9"
       sodipodi:nodetypes="cccccccccccccccccccccccccccccccccccccccccccccccccccccccccc"
       style="display:inline" />
    <path
       d="M 0,0 C 5.4513508,7.2303845 1.7959854,21.108979 0.9296875,29.355469 L 0.546875,33.246094 C -1.0977194,49.132876 -2.6602194,46.414126 -6.0078125,49.074219 -10.19311,48.771705 -5.7219877,49.061371 -7.8125,48.8125 c -2.895186,-0.2862 -7.942934,-1.416881 -10.851562,-1.488281 l -5.496094,0.453125 c -8.779414,0.876897 -13.254797,7.134429 -20.785156,11.515625 -13.341354,7.682296 -25.143563,9.588895 -40.25,5.9375 -5.73837,-1.726426 -11.177745,-3.94572 -16.624998,-6.4375 l -2.1543,-0.980469 c -4.31066,-2.079018 -7.72133,-4.233443 -10.7207,-8.082031 0.1875,-2.3125 0.1875,-2.3125 1,-4 L -110.39844,45.25 c 9.17961,-1.422326 17.315463,-3.355698 25.703128,-7.519531 l 2.511718,-1.199219 c 11.192171,-5.707493 22.316447,-12.528467 32.226868,-20.224036 3.333228,-2.519267 6.402575,-3.965359 10.302467,-5.516085 4.788968,-1.9484025 9.114826,-5.0641408 13.771447,-7.3106602 C -19.37738,0.46825631 -6.6682733,-4.9935226 0,0 Z"
       fill="#ba42e5"
       transform="translate(821.69531,154.26953)"
       id="path14"
       sodipodi:nodetypes="cccccccccccccccccccc" />
    <path
       d="M 0,0 C 3.1065265,0.3358407 4.5599488,0.54629862 6.7683058,2.8308058 8.4419417,4.6464466 7.5580583,3.3648155 10.165514,7.248699 L 11,9 c 2,3 0.40901,0.3483494 2.751301,4.541592 l 1.381282,2.298097 0.962163,1.746554 1.092754,2.101257 2.025964,3.167049 c 2.050224,2.68148 0.326652,0.515965 3.06388,4.329045 4.519485,4.675105 7.4588,10.392021 10.730468,15.980468 3.058614,5.097689 6.140641,9.301389 10.479493,13.370118 1.844235,1.787086 3.165986,3.685141 4.450195,5.90332 L 49.152344,64.496094 50,66 c -11.653299,1.818621 -25.034452,2.358118 -36.8125,2.8125 0.849271,-2.08696 1.292292,-4.642671 1.266563,-5.823381 l -0.18614,-1.77941 C 13.741117,58.650223 13.276808,58.121986 12.625,56.28125 11.503024,53.744857 12.074539,55.181026 10.457992,51.024666 9.5989818,48.816033 8.9657569,45.838158 8.113897,42.430657 6.3124376,35.224692 3.550806,28.533312 2.0625,20.5 L 1.4230957,17.088623 C 0.39688189,11.301857 -0.23531642,5.8757797 0,0 Z"
       fill="#fef7d7"
       transform="translate(824,212)"
       id="path27"
       sodipodi:nodetypes="cccccccccccccccccccssccc" />
    <path
       d="M 0,0 2.125,0.4375 C 2.6647809,7.5273142 0.691016,13.941793 -1.125,20.75 l -0.9101563,3.552734 c -2.308671,8.797511 -3.9573586,13.004083 -7.1042467,22.899169 -1.929691,5.854489 -2.376256,7.995108 -4.224213,14.250995 -0.8151,2.759358 -2.111828,4.092795 -0.285209,9.222039 C -21.481849,70.898383 -32.343718,69.4396 -40.125,68.5625 l -2.238037,-0.237793 c -5.265665,-0.640909 -8.536034,-1.480598 -11.666215,-1.959129 l 4.433538,-2.246863 2.787656,-1.653487 c 3.033727,-2.541011 4.798421,-4.322045 7.101027,-7.523822 2.797115,-3.822923 5.756971,-7.515586 8.697998,-11.228271 0.912937,-1.156124 1.822119,-2.315221 2.727783,-3.477051 0.947652,-1.212041 1.906285,-2.415566 2.875,-3.61084 5.043124,-6.396657 8.437778,-13.511509 12.03125,-20.787353 C -5.8148121,0.88486271 -5.8148121,0.88486271 0,0 Z"
       fill="#fef5d6"
       transform="translate(809.875,210.5625)"
       id="path28"
       sodipodi:nodetypes="cccccscccccccccccc" />
    <path
       d="m 0,0 c 5.4513508,7.2303845 1.9727621,20.048319 1.1064642,28.294809 l -0.47120085,4.909312 c -0.96731126,9.255838 -2.22104645,12.778564 -2.75572085,14.647603 -0.6540516,2.286342 -0.4738543,1.808994 -0.856105,3.066245 -2.7477976,-0.771264 -2.1829252,-0.575348 -4.5546875,-1.449219 -2.4122559,-0.473737 -1.2208271,-0.248395 -2.762512,-0.551006 -0.508364,-0.09978 -1.240027,-0.257657 -2.620301,-0.468525 -4.446614,-0.42187 -4.549479,-0.40625 -7.121093,-0.07813 -8.779414,0.876897 -17.379797,6.540679 -24.910156,10.921875 -13.341354,7.682296 -25.143563,9.588895 -40.25,5.9375 -5.73837,-1.726426 -11.177745,-3.94572 -16.624998,-6.4375 l -2.1543,-0.980469 c -4.31066,-2.079018 -7.72133,-4.233443 -10.7207,-8.082031 -1.71874,-2.671875 -2.15625,-3.140625 -0.9375,-3.8125 L -110.39844,45.25 c 9.17961,-1.422326 17.315463,-3.355698 25.703128,-7.519531 l 2.511718,-1.199219 c 11.192171,-5.707493 18.913496,-11.865555 29.840383,-19.472735 2.152508,-1.381241 5.832929,-3.477762 7.609079,-4.432529 1.684875,-0.905702 3.623294,-1.875437 5.610203,-2.9397114 5.098328,-2.2577617 8.584496,-3.9592864 13.241117,-6.2058058 C -19.37738,0.46825631 -6.6682733,-4.9935226 0,0 Z m -37.740723,13.710449 c -1.76193,0.919479 -3.535357,1.816845 -5.310058,2.711426 -8.382859,4.321598 -15.962654,9.546926 -23.67334,14.9375 -11.963789,8.321605 -21.933086,13.239106 -36.104899,16.836788 -0.42246,0.107246 -5.09662,0.743681 -3.21004,2.503056 3.67823,2.810981 6.437703,4.262614 10.656248,6.15625 l 3.300781,1.507812 c 5.819329,2.349211 11.453105,5.093046 17.855843,5.325679 5.974869,0.217086 10.028751,-0.04718 18.249626,-3.458491 2.915732,-1.466909 6.092749,-2.7922 8.15625,-3.8125 2.391075,-1.176832 5.267693,-2.638974 7.176306,-3.585579 9.286575,-4.605814 10.755815,-5.468084 15.102337,-6.678969 3.997115,-1.113544 8.830008,-0.540382 14.971356,0.920798 2.4914118,0.60395 0.9116856,0.107494 4.9687505,1.46875 1.6216343,-3.793735 2.4355768,-7.396367 3.0157978,-10.986399 0.972236,-6.015568 1.4024175,-11.727525 1.84112316,-18.513596 0.12275433,-1.898812 0.13990682,-3.557303 0.21440284,-5.482495 0.0498003,-1.286985 0.1103709,-2.031134 -0.0470562,-4.3256186 C -0.98303268,4.1552012 -0.79137283,3.7223866 -2.1285016,1.9872474 -2.5030784,1.5011738 -3.6532691,1.0250242 -4.7265625,0.9179688 -19.050079,2.1576278 -26.26559,7.6991466 -37.740723,13.710449 Z"
       fill="#9017b8"
       transform="translate(821.69531,154.26953)"
       id="path29"
       sodipodi:nodetypes="cccsccsccccccccccccsccccccscccsccssccssscscc" />
    <path
       d="m -1.25,-0.84375 c 2.5653457,0.11979495 2.2904528,0.0742404 3.984375,0.17773438 l 3.34375,0.03125 c 15.728855,-0.10670865 23.92568,5.57106112 35,15.99999962 3.134126,3.224101 6.067793,6.592715 9,10 12.614764,14.263661 25.321845,24.614163 42.734375,32.773438 2.265625,1.226562 2.265625,1.226562 3.265625,3.226562 -2.3125,1.375 -2.3125,1.375 -6,2 -4.001224,-1.446545 -7.438568,-3.697389 -11,-6 L 75.816406,55.294922 C 61.80197,46.030013 50.556324,33.39801 39.777344,20.642578 34.139719,14.085419 31.072466,8.3252205 23.15625,5.1113281 21.182666,4.3667032 19.739908,4.253849 16.421875,3.8027344 L 12.556641,3.3369141 C 9.9287149,3.0030698 7.3318497,2.9940781 5.015625,2.8964844 L 0.1875,2.7285156 c -8.3906211,0.1166148 -9.414055,0.1856496 -12.992066,1.0843983 -3.569679,0.8966561 -5.040723,2.6706839 -8.347778,5.591383 -2.373565,2.5737461 -4.582506,5.2271561 -6.769531,7.9609371 l -4.5,5.5 -2.222656,2.75 c -3.029591,3.658374 -6.213362,7.16197 -9.429688,10.65625 -1.987109,2.157083 -1.987109,2.157083 -3.847656,5.09375 l -3.335937,3.398438 c -8.788945,7.60294 -14.177116,11.624738 -22.089844,16.402344 -2.64358,1.599539 -3.95771,3.27431 -6.380976,5.199218 -2.53033,-0.453204 -3.856156,-1.779029 -3.918656,-3.665747 2.874963,-2.814561 5.616162,-4.332227 8.725413,-6.146753 8.783969,-4.450101 15.844816,-9.42236 22.195313,-17.03125 1.996407,-2.385318 4.08052,-4.673466 6.179687,-6.96875 4.734047,-5.242997 9.187821,-10.693024 13.625,-16.1875 4.04736,-4.99596 7.467572,-10.0355739 11.620707,-12.8431059 C -15.687824,-0.27250903 -11.022602,-0.92903295 -1.25,-0.84375 Z"
       fill="#c43903"
       transform="translate(812.92187,204.63477)"
       id="path33"
       sodipodi:nodetypes="ccccccccccccccccsccccccccccccccsc" />
    <path
       d="M 0,0 C 13.53,0 27.06,0 41,0 37.312588,5.5311173 34.213426,9.5682115 28,12 19.038043,12.95988 10.93526,13.445754 3.5664063,7.6054687 1.076946,5.0539272 0,3.6184966 0,0 Z"
       fill="#c82ffd"
       transform="translate(797,285)"
       id="path40" />
    <path
       d="M 0,0 C 23.582385,1.974989 23.582385,1.974989 35,4 32.288251,8.7147449 30.247283,11.250906 25,13 18.027611,13.480854 11.55537,12.811068 5.9101562,8.3476563 3.0948419,5.6244585 1.2528474,3.7585423 0,0 Z"
       fill="#c72ffd"
       transform="translate(760,281)"
       id="path46" />
    <path
       d="m 0,0 h 2 c -1.34556112,5.9802717 -4.5776337,9.9281872 -9,14 -6.012345,3.498091 -11.20574,3.888018 -17.9375,2.3125 C -27,15 -26.84532,15.132583 -28.733761,13.147173 -29.551353,10.89327 -28.795495,11.21534 -28,10 l 3.621094,-0.6992187 C -11.159925,6.988697 -11.159925,6.988697 0,0 Z"
       fill="#c72ffc"
       transform="translate(905,271)"
       id="path48"
       sodipodi:nodetypes="cccccccc" />
    <path
       d="M 0,0 C -3.1850092,4.4037104 -5.9732796,8.2249044 -11.4375,9.5625 -18.523726,10.549037 -23.836686,9.6702515 -29.652344,5.3515625 -31,4 -31,4 -32,1 l 1.908447,-0.0759277 C -27.206707,0.80721573 -24.322116,0.68489979 -21.4375,0.5625 l 3.001953,-0.11914062 c 4.192955,-0.18109106 8.317715,-0.36160383 12.4628908,-1.04101563 2.2787686,-0.3084273 2.8760751,-0.26628651 4.6619116,-0.27821206 C 0.00658132,-0.88466522 0.07312781,-0.71955932 0,0 Z"
       fill="#c62efb"
       transform="translate(873,283)"
       id="path49"
       sodipodi:nodetypes="ccccccccsc" />
    <path
       d="M 0,0 C 0.53625,0.17015625 1.0725,0.3403125 1.625,0.515625 9.6698937,3.0031908 17.823335,5.0014852 26,7 c 0,0.99 0,1.98 0,3 -4.190604,3.859767 -7.794148,4.746 -13.460937,4.523438 C 8.1743383,13.623633 5.0113123,11.217971 2,8 0.07943539,4.9221721 0,3.8315444 0,0 Z"
       fill="#c72ffd"
       transform="translate(729,273)"
       id="path50" />
    <path
       d="M -0.125,0.375 4.5,1.90625 C 13.730637,4.9827684 18.981338,4.7312123 27.875,0.25 l -1.75,4.375 C 22.230717,6.3409995 21.747799,6.5864917 19.442044,6.9779025 17.765475,7.2625066 15.692743,7.136594 11.445312,7.2773438 7,6.6875 5.8125,6.3125 2.625,5.0625 L -1,2.5625 C -1.2539062,0.59765629 -0.125,0.375 -0.125,0.375 Z"
       fill="#e0d8dd"
       transform="translate(766,292)"
       id="path59"
       sodipodi:nodetypes="ccccscccc" />
    <path
       d="M 0,0 C 1.5,1.375 1.0546875,1.171875 2.5546875,2.796875 3.1103466,3.3577423 3.5625,3.8541663 4.0625,4.3437495 L 5.8125,5.1875 c 4.362114,0.9412618 8.357956,0.6564696 10.999646,0.4313791 2.37927,-0.2027305 5.315024,-1.6447459 7.595865,-2.6730672 L 24.086167,4.8922743 C 21.716198,5.682264 20.762928,6.0320229 17.506686,6.8674085 13.342227,7.935796 7.3335889,7.1285149 3.75,6.53125 c 0,0 -4.57130922,1.2846444 -6.8125,3.59375 -0.4995483,0.483434 -0.7261665,0.706027 -0.938263,0.819241 -0.3558655,0.189955 -0.058728,0.0428 -0.744954,0.58181 -0.1793771,0.140895 -0.2759921,0.20562 -0.648055,0.489002 -0.2489944,0.189647 -0.3583293,0.277171 -1.9890405,0.727134 -0.096864,-0.169512 -0.371915,-0.647271 -0.449626,-0.804264 C -9.0082764,9.5624798 -7.8178961,8.8488925 -5.0625,6.5625 -2.3870531,4.3238607 -1.1759199,3.1749837 0,0 Z"
       fill="#a83394"
       transform="translate(874,283)"
       id="path70"
       sodipodi:nodetypes="ccccsccsccssscscc" />
    <path
       d="M -5.3125,-2.875 C -0.93138111,-2.9781468 4.6311189,0.77185315 6.6484375,2.0195313 10.154314,3.4812839 13.638567,3.32855 17.375,3.3125 l 2.25,0.048828 C 24.575615,3.3657015 27.571501,2.3710104 32,0 l 3,1 C 27.910789,4.7931884 20.251344,8.6585616 12,7 10.680094,6.4415157 8.5761267,5.3244264 6.2881112,4.3728378 4.6208185,3.6794086 2.8557936,3.0738626 1.2252134,2.8363949 -3.2463119,2.1851895 -4.9495189,1.8400017 -6.9648437,1.6953125 Z"
       fill="#a531aa"
       transform="translate(799,295)"
       id="path79"
       sodipodi:nodetypes="cccccccsscc" />
    <path
       d="m 840.9231,290.09475 c 0.0368,-0.0997 0.10131,-0.19635 1.46208,0.15038 0.59712,0.20295 0.72234,0.28591 1.49373,0.71971 7.88026,3.70006 13.80759,3.37394 22.33984,2.0039 -0.19014,0.65885 -0.21221,1.01302 0.0194,2.04687 -3.0604,0.99484 -2.10477,1.39347 -7.33204,1.82813 -1.68693,-0.0437 -3.37547,-0.0398 -5.0625,0 -4.7159,0.1108 -5.0701,0.0344 -8.08811,-0.94601 l -4.77616,-1.67206 -0.17523,-2.04381 c 0.0396,-1.18008 0.0245,-1.5125 0.11885,-2.08711 z"
       fill="#dcb8e8"
       id="path94"
       sodipodi:nodetypes="cccccccccccc" />
    <path
       d="m 873.8125,282.78125 c 1.5,1.375 1.84375,1.625 3.0625,3.34375 l -1.03477,0.75027 -1.01126,0.99437 -0.96718,1.19378 c -1.96181,2.25197 -5.39535,5.21844 -7.64703,5.96804 -0.19581,-0.45009 -0.20334,-0.45269 -0.24747,-0.60749 l -0.25494,-1.39463 c 0.20144,-0.52967 0.17916,-0.62096 0.54233,-1.03671 0.35351,-0.40468 0.38068,-0.44535 0.64099,-0.69124 0.66991,-0.63279 0.40894,-0.51991 1.85433,-1.95764 2.67545,-2.23864 3.88658,-3.38752 5.0625,-6.5625 z"
       fill="#9e32af"
       id="path100"
       sodipodi:nodetypes="ccccccccsscc" />
    <path
       d="M 0.46875,-0.3125 C 0.69290973,-0.58406936 1.7541694,-1.0018137 1.6616991,-0.492632 1.3237657,1.3681761 0.55403496,3.4111303 -0.5,6.4375 c -0.5529073,0.9189164 -1.1929519,1.7039991 -1.8047258,2.3923382 -2.0706877,2.3298398 -4.4710208,3.5513488 -7.6979552,5.1027598 0,-0.946503 0.02662,-1.268584 0.042742,-1.81603 0.0046,-0.15636 1.2398818,-0.616494 2.3896263,-1.768912 L -5.09375,8.34375 c 2.8991578,-2.3224436 4.12191873,-5.206437 5.5625,-8.65625 z"
       fill="#9c1acf"
       transform="translate(908,274)"
       id="path106"
       sodipodi:nodetypes="cscscsccc" />
    <path
       d="M -0.5,1.1875 C 1.6541661,1.4624997 1.875,2.75 1.875,2.75 L 2,4 C 0.46875,5.3867187 0.90625,5.1367188 -1.0625,7 L -2.90625,8.4492187 -5.25,10.1875 C -4.6959911,9.5908217 -9.5205237,9.9683923 -7.5667135,8.7149797 -4.7588095,6.913647 -1.7937076,2.7752321 -0.5,1.1875 Z"
       fill="#ac32ac"
       transform="translate(839,286)"
       id="path144"
       sodipodi:nodetypes="ccccccsc" />
  </g>
</svg>
