<?xml version="1.0" encoding="UTF-8" standalone="no"?>
<!-- Uploaded to: SVG Repo, www.svgrepo.com, Generator: SVG Repo Mixer Tools -->

<svg
   width="900"
   height="900"
   viewBox="0 0 27 27"
   fill="none"
   version="1.1"
   id="svg2"
   sodipodi:docname="atoilet.svg"
   inkscape:version="1.4.2 (f4327f4, 2025-05-13)"
   xmlns:inkscape="http://www.inkscape.org/namespaces/inkscape"
   xmlns:sodipodi="http://sodipodi.sourceforge.net/DTD/sodipodi-0.dtd"
   xmlns="http://www.w3.org/2000/svg"
   xmlns:svg="http://www.w3.org/2000/svg">
  <defs
     id="defs2" />
  <sodipodi:namedview
     id="namedview2"
     pagecolor="#ffffff"
     bordercolor="#111111"
     borderopacity="1"
     inkscape:showpageshadow="0"
     inkscape:pageopacity="0"
     inkscape:pagecheckerboard="1"
     inkscape:deskcolor="#d1d1d1"
     inkscape:zoom="0.729375"
     inkscape:cx="608.74036"
     inkscape:cy="379.09169"
     inkscape:window-width="2560"
     inkscape:window-height="1369"
     inkscape:window-x="-8"
     inkscape:window-y="-8"
     inkscape:window-maximized="1"
     inkscape:current-layer="svg2" />
  <ellipse
     style="fill:#003aff;fill-opacity:1;stroke:#000000;stroke-width:1.40601;stroke-dasharray:none;stroke-opacity:1"
     id="path3"
     cy="13.52185"
     cx="13.5"
     rx="12.03974"
     ry="12.451051" />
  <g
     id="g2"
     transform="matrix(0.85375607,0,0,0.88071979,4.1086832,2.9313625)"
     style="fill:#ffffff;fill-opacity:1">
    <circle
       cx="9"
       cy="4"
       r="2"
       id="circle1"
       style="fill:#ffffff;fill-opacity:1" />
    <path
       d="M 16.98,14.804 A 1,1 0 0 0 16,14 H 11.867 L 11.438,11 H 16 V 9 H 11.153 L 10.99,7.858 A 1,1 0 0 0 10,7 H 9 A 1.003,1.003 0 0 0 8.01,8.142 l 0.877,6.142 A 2.009,2.009 0 0 0 10.867,16 h 4.313 l 0.839,4.196 C 16.113,20.663 16.523,21 17,21 h 3 v -2 h -2.181 z"
       id="path1"
       style="fill:#ffffff;fill-opacity:1" />
    <path
       d="M 12.51,17.5 C 11.771,18.976 10.26,20 8.5,20 A 4.505,4.505 0 0 1 4,15.5 4.503,4.503 0 0 1 6.817,11.333 L 6.528,9.308 C 3.905,10.145 2,12.604 2,15.5 2,19.084 4.916,22 8.5,22 a 6.497,6.497 0 0 0 5.545,-3.126 L 13.771,17.5 Z"
       id="path2"
       style="fill:#ffffff;fill-opacity:1" />
  </g>
</svg>
