<?xml version="1.0" encoding="UTF-8" standalone="no"?>
<!-- Uploaded to: SVG Repo, www.svgrepo.com, Generator: SVG Repo Mixer Tools -->

<svg
   height="800px"
   width="800px"
   version="1.1"
   id="_x32_"
   viewBox="0 0 512 512"
   xml:space="preserve"
   sodipodi:docname="lift.svg"
   inkscape:version="1.4.2 (f4327f4, 2025-05-13)"
   xmlns:inkscape="http://www.inkscape.org/namespaces/inkscape"
   xmlns:sodipodi="http://sodipodi.sourceforge.net/DTD/sodipodi-0.dtd"
   xmlns="http://www.w3.org/2000/svg"
   xmlns:svg="http://www.w3.org/2000/svg"><defs
   id="defs6">
	
	
	
	
	
	
</defs><sodipodi:namedview
   id="namedview6"
   pagecolor="#ffffff"
   bordercolor="#111111"
   borderopacity="1"
   inkscape:showpageshadow="0"
   inkscape:pageopacity="0"
   inkscape:pagecheckerboard="1"
   inkscape:deskcolor="#d1d1d1"
   inkscape:zoom="1.45875"
   inkscape:cx="369.83719"
   inkscape:cy="349.95716"
   inkscape:window-width="2560"
   inkscape:window-height="1369"
   inkscape:window-x="-8"
   inkscape:window-y="-8"
   inkscape:window-maximized="1"
   inkscape:current-layer="_x32_" />
<style
   type="text/css"
   id="style1">
	.st0{fill:#000000;}
</style>
<rect
   style="fill:#ffffff;fill-opacity:1;stroke:none;stroke-width:30.6956"
   id="rect6"
   width="320.39536"
   height="339.69952"
   x="95.58297"
   y="153.49554" /><path
   class="st0"
   d="m 164.881,236.368 c -11.791,0 -21.343,9.552 -21.343,21.343 0,11.791 9.552,21.343 21.343,21.343 11.791,0 21.35,-9.552 21.35,-21.343 0,-11.791 -9.559,-21.343 -21.35,-21.343 z"
   id="path1" /><path
   class="st0"
   d="m 256.007,236.368 c -11.791,0 -21.35,9.552 -21.35,21.343 0,11.791 9.559,21.343 21.35,21.343 11.784,0 21.35,-9.552 21.35,-21.343 10e-4,-11.791 -9.566,-21.343 -21.35,-21.343 z"
   id="path2" /><path
   class="st0"
   d="m 347.126,236.368 c -11.791,0 -21.35,9.552 -21.35,21.343 0,11.791 9.559,21.343 21.35,21.343 11.791,0 21.35,-9.552 21.35,-21.343 0,-11.791 -9.559,-21.343 -21.35,-21.343 z"
   id="path3" /><path
   class="st0"
   d="M 395.779,134.776 H 116.228 c -21.477,0 -38.966,17.481 -38.966,38.959 v 299.299 c 0,21.485 17.489,38.966 38.966,38.966 h 279.551 c 21.484,0 38.958,-17.481 38.958,-38.966 V 173.735 c 10e-4,-21.478 -17.473,-38.959 -38.958,-38.959 z m -234.696,352.636 3.798,-85.557 3.798,85.557 z m 91.112,0 3.812,-85.557 3.798,85.557 z m 91.126,0 3.805,-85.557 3.805,85.557 z m 66.829,-14.378 c 0,7.93 -6.448,14.378 -14.37,14.378 h -25.22 l 0.694,-99.892 c 1.573,2.302 4.153,3.854 7.143,3.713 4.584,-0.22 8.12,-4.11 7.9,-8.695 l 3.543,-71.052 c 0,-27.947 -28.316,-29.322 -42.714,-29.322 -14.399,0 -42.714,1.375 -42.714,29.322 l 2.38,71.052 c -0.212,4.585 3.316,8.475 7.901,8.695 4.007,0.191 7.334,-2.559 8.291,-6.293 l 0.705,102.471 h -44.245 l 0.687,-99.892 c 1.573,2.302 4.156,3.854 7.146,3.713 4.577,-0.22 8.12,-4.11 7.908,-8.695 l 3.528,-71.052 c 0,-27.947 -28.315,-29.322 -42.707,-29.322 -14.406,0 -42.722,1.375 -42.722,29.322 l 2.381,71.052 c -0.213,4.585 3.317,8.475 7.908,8.695 4.007,0.191 7.341,-2.565 8.287,-6.314 l 0.701,102.492 h -44.237 l 0.683,-99.892 c 1.573,2.302 4.156,3.854 7.15,3.713 4.585,-0.22 8.114,-4.11 7.901,-8.695 l 3.536,-71.052 c 0,-27.947 -28.308,-29.322 -42.714,-29.322 -14.392,0 -42.707,1.375 -42.707,29.322 l 2.374,71.052 c -0.22,4.585 3.323,8.475 7.901,8.695 4.022,0.191 7.348,-2.565 8.294,-6.314 l 0.702,102.492 h -25.216 c -7.93,0 -14.377,-6.448 -14.377,-14.378 V 173.735 c 0,-7.922 6.448,-14.371 14.377,-14.371 h 279.551 c 7.922,0 14.37,6.449 14.37,14.371 v 299.299 z"
   id="path4"
   style="fill:#000000;fill-opacity:1" /><path
   class="st0"
   d="m 283.926,77.14 29.208,-29.209 v 65.674 c 0,5.988 4.862,10.842 10.849,10.842 5.994,0 10.856,-4.854 10.856,-10.842 V 47.931 l 29.208,29.209 c 2.126,2.119 4.896,3.182 7.667,3.182 2.778,0 5.563,-1.063 7.674,-3.182 4.245,-4.237 4.245,-11.103 0,-15.334 l -47.73,-47.738 -7.674,-7.668 -7.667,7.668 -47.731,47.738 c -4.238,4.23 -4.238,11.097 0,15.334 4.236,4.237 11.11,4.237 15.34,0 z"
   id="path5"
   style="stroke:#ffffff;stroke-width:6.4;stroke-dasharray:none;stroke-opacity:1;paint-order:stroke markers fill" /><path
   class="st0"
   d="m 180.35,121.272 c 0,0.007 0,0.007 0,0.007 l 7.668,7.667 7.674,-7.667 c 0,0 0.007,0 0.007,-0.007 L 243.416,73.54 c 4.245,-4.237 4.245,-11.11 0,-15.341 -4.223,-4.237 -11.097,-4.237 -15.334,0 L 198.873,87.415 V 21.742 c 0,-5.995 -4.862,-10.849 -10.856,-10.849 -5.98,0 -10.842,4.854 -10.842,10.849 V 87.415 L 147.96,58.199 c -4.23,-4.237 -11.104,-4.237 -15.342,0 -4.238,4.23 -4.238,11.104 0,15.341 z"
   id="path6"
   style="stroke:#ffffff;stroke-width:6.4;stroke-linecap:butt;stroke-dasharray:none;stroke-opacity:1;paint-order:stroke markers fill" />
<path
   class="st0"
   d="m 283.926,80.051652 29.208,-29.209 v 65.673998 c 0,5.988 4.862,10.842 10.849,10.842 5.994,0 10.856,-4.854 10.856,-10.842 V 50.842652 l 29.208,29.209 c 2.126,2.119 4.896,3.182 7.667,3.182 2.778,0 5.563,-1.063 7.674,-3.182 4.245,-4.237 4.245,-11.103 0,-15.334 l -47.73,-47.738 -7.674,-7.6680001 -7.667,7.6680001 -47.731,47.738 c -4.238,4.23 -4.238,11.097 0,15.334 4.236,4.237 11.11,4.237 15.34,0 z"
   id="path7"
   style="stroke:#ffffff;stroke-width:6.4;stroke-dasharray:none;stroke-opacity:1;paint-order:stroke markers fill" /><path
   class="st0"
   d="m 180.35,118.36313 c 0,0.007 0,0.007 0,0.007 l 7.668,7.667 7.674,-7.667 c 0,0 0.007,0 0.007,-0.007 l 47.717,-47.732003 c 4.245,-4.237 4.245,-11.11 0,-15.341 -4.223,-4.237 -11.097,-4.237 -15.334,0 l -29.209,29.216 v -65.673 c 0,-5.995 -4.862,-10.8490001 -10.856,-10.8490001 -5.98,0 -10.842,4.8540001 -10.842,10.8490001 v 65.673 l -29.215,-29.216 c -4.23,-4.237 -11.104,-4.237 -15.342,0 -4.238,4.23 -4.238,11.104 0,15.341 z"
   id="path8"
   style="stroke:#ffffff;stroke-width:6.4;stroke-linecap:butt;stroke-dasharray:none;stroke-opacity:1;paint-order:stroke markers fill" /></svg>
